<mxfile host="app.diagrams.net" modified="2022-01-12T15:15:53.885Z" agent="5.0 (Macintosh; Intel Mac OS X 10_15_7) AppleWebKit/537.36 (KHTML, like Gecko) Chrome/96.0.4664.110 Safari/537.36" etag="i7Sn9z6kAnf9LWAtMmUi" version="15.7.0" type="github">
  <diagram id="SrdY2fLvZJ2pfl3qJDiN" name="Page-1">
    <mxGraphModel dx="946" dy="614" grid="1" gridSize="10" guides="1" tooltips="1" connect="1" arrows="1" fold="1" page="1" pageScale="1" pageWidth="827" pageHeight="1169" math="0" shadow="0">
      <root>
        <mxCell id="0" />
        <mxCell id="1" parent="0" />
        <mxCell id="ht6JCs_ya0XUu8KMPaR9-1" value="b(nums,[],[0,0,0]&lt;br&gt;nums=[1,2,3]&lt;br&gt;for 循环定义选择列表" style="rounded=0;whiteSpace=wrap;html=1;" vertex="1" parent="1">
          <mxGeometry x="350" y="290" width="120" height="60" as="geometry" />
        </mxCell>
        <mxCell id="ht6JCs_ya0XUu8KMPaR9-2" value="i=0&lt;br&gt;b(nums,[1],[1,0,0]" style="rounded=0;whiteSpace=wrap;html=1;" vertex="1" parent="1">
          <mxGeometry x="230" y="430" width="170" height="60" as="geometry" />
        </mxCell>
        <mxCell id="ht6JCs_ya0XUu8KMPaR9-4" value="i=1&lt;br&gt;b(nums,[2],[0,1,0])" style="rounded=0;whiteSpace=wrap;html=1;" vertex="1" parent="1">
          <mxGeometry x="470" y="430" width="120" height="60" as="geometry" />
        </mxCell>
        <mxCell id="ht6JCs_ya0XUu8KMPaR9-5" value="" style="rounded=0;whiteSpace=wrap;html=1;" vertex="1" parent="1">
          <mxGeometry x="630" y="430" width="120" height="60" as="geometry" />
        </mxCell>
        <mxCell id="ht6JCs_ya0XUu8KMPaR9-9" value="" style="endArrow=classic;html=1;rounded=0;exitX=0.25;exitY=1;exitDx=0;exitDy=0;entryX=0.5;entryY=0;entryDx=0;entryDy=0;" edge="1" parent="1" source="ht6JCs_ya0XUu8KMPaR9-1" target="ht6JCs_ya0XUu8KMPaR9-2">
          <mxGeometry width="50" height="50" relative="1" as="geometry">
            <mxPoint x="390" y="500" as="sourcePoint" />
            <mxPoint x="440" y="450" as="targetPoint" />
          </mxGeometry>
        </mxCell>
        <mxCell id="ht6JCs_ya0XUu8KMPaR9-33" value="选择1" style="edgeLabel;html=1;align=center;verticalAlign=middle;resizable=0;points=[];" vertex="1" connectable="0" parent="ht6JCs_ya0XUu8KMPaR9-9">
          <mxGeometry x="-0.0717" y="1" relative="1" as="geometry">
            <mxPoint as="offset" />
          </mxGeometry>
        </mxCell>
        <mxCell id="ht6JCs_ya0XUu8KMPaR9-10" value="i=0&lt;br&gt;used[0]=1,continue" style="rounded=0;whiteSpace=wrap;html=1;" vertex="1" parent="1">
          <mxGeometry x="80" y="530" width="120" height="60" as="geometry" />
        </mxCell>
        <mxCell id="ht6JCs_ya0XUu8KMPaR9-11" value="i=1&lt;br&gt;b(nums,[1,2],[1,1,0])" style="rounded=0;whiteSpace=wrap;html=1;" vertex="1" parent="1">
          <mxGeometry x="220" y="530" width="120" height="60" as="geometry" />
        </mxCell>
        <mxCell id="ht6JCs_ya0XUu8KMPaR9-12" value="i=2&lt;br&gt;b(nums,[1,3],[1,0,1])" style="rounded=0;whiteSpace=wrap;html=1;" vertex="1" parent="1">
          <mxGeometry x="500" y="540" width="120" height="60" as="geometry" />
        </mxCell>
        <mxCell id="ht6JCs_ya0XUu8KMPaR9-13" value="used[0]=1&lt;br&gt;continue" style="rounded=0;whiteSpace=wrap;html=1;" vertex="1" parent="1">
          <mxGeometry x="30" y="640" width="120" height="60" as="geometry" />
        </mxCell>
        <mxCell id="ht6JCs_ya0XUu8KMPaR9-14" value="used[1]&lt;br&gt;continue" style="rounded=0;whiteSpace=wrap;html=1;" vertex="1" parent="1">
          <mxGeometry x="170" y="640" width="120" height="60" as="geometry" />
        </mxCell>
        <mxCell id="ht6JCs_ya0XUu8KMPaR9-15" value="i=2&lt;br&gt;b(nums,[1,2,3],[1,1,1)" style="rounded=0;whiteSpace=wrap;html=1;" vertex="1" parent="1">
          <mxGeometry x="310" y="640" width="120" height="60" as="geometry" />
        </mxCell>
        <mxCell id="ht6JCs_ya0XUu8KMPaR9-16" value="" style="endArrow=classic;html=1;rounded=0;exitX=0.25;exitY=1;exitDx=0;exitDy=0;entryX=0.25;entryY=0;entryDx=0;entryDy=0;" edge="1" parent="1" source="ht6JCs_ya0XUu8KMPaR9-2" target="ht6JCs_ya0XUu8KMPaR9-11">
          <mxGeometry width="50" height="50" relative="1" as="geometry">
            <mxPoint x="350" y="580" as="sourcePoint" />
            <mxPoint x="400" y="530" as="targetPoint" />
          </mxGeometry>
        </mxCell>
        <mxCell id="ht6JCs_ya0XUu8KMPaR9-34" value="选择2" style="edgeLabel;html=1;align=center;verticalAlign=middle;resizable=0;points=[];" vertex="1" connectable="0" parent="ht6JCs_ya0XUu8KMPaR9-16">
          <mxGeometry x="-0.0706" y="-2" relative="1" as="geometry">
            <mxPoint as="offset" />
          </mxGeometry>
        </mxCell>
        <mxCell id="ht6JCs_ya0XUu8KMPaR9-17" value="" style="endArrow=classic;html=1;rounded=0;exitX=0.5;exitY=1;exitDx=0;exitDy=0;" edge="1" parent="1" source="ht6JCs_ya0XUu8KMPaR9-11" target="ht6JCs_ya0XUu8KMPaR9-15">
          <mxGeometry width="50" height="50" relative="1" as="geometry">
            <mxPoint x="350" y="570" as="sourcePoint" />
            <mxPoint x="400" y="520" as="targetPoint" />
          </mxGeometry>
        </mxCell>
        <mxCell id="ht6JCs_ya0XUu8KMPaR9-35" value="选择3" style="edgeLabel;html=1;align=center;verticalAlign=middle;resizable=0;points=[];" vertex="1" connectable="0" parent="ht6JCs_ya0XUu8KMPaR9-17">
          <mxGeometry x="-0.1217" y="-4" relative="1" as="geometry">
            <mxPoint as="offset" />
          </mxGeometry>
        </mxCell>
        <mxCell id="ht6JCs_ya0XUu8KMPaR9-22" value="return&lt;br&gt;撤销3" style="endArrow=classic;html=1;rounded=0;exitX=0.75;exitY=0;exitDx=0;exitDy=0;entryX=0.75;entryY=1;entryDx=0;entryDy=0;" edge="1" parent="1" source="ht6JCs_ya0XUu8KMPaR9-15" target="ht6JCs_ya0XUu8KMPaR9-11">
          <mxGeometry relative="1" as="geometry">
            <mxPoint x="300" y="610" as="sourcePoint" />
            <mxPoint x="460" y="610" as="targetPoint" />
          </mxGeometry>
        </mxCell>
        <mxCell id="ht6JCs_ya0XUu8KMPaR9-28" value="" style="shape=flexArrow;endArrow=classic;html=1;rounded=0;exitX=0.5;exitY=1;exitDx=0;exitDy=0;" edge="1" parent="1" source="ht6JCs_ya0XUu8KMPaR9-15" target="ht6JCs_ya0XUu8KMPaR9-29">
          <mxGeometry width="50" height="50" relative="1" as="geometry">
            <mxPoint x="395" y="740" as="sourcePoint" />
            <mxPoint x="445" y="690" as="targetPoint" />
          </mxGeometry>
        </mxCell>
        <mxCell id="ht6JCs_ya0XUu8KMPaR9-30" value="输出" style="edgeLabel;html=1;align=center;verticalAlign=middle;resizable=0;points=[];" vertex="1" connectable="0" parent="ht6JCs_ya0XUu8KMPaR9-28">
          <mxGeometry x="-0.4" y="1" relative="1" as="geometry">
            <mxPoint as="offset" />
          </mxGeometry>
        </mxCell>
        <mxCell id="ht6JCs_ya0XUu8KMPaR9-29" value="path.size()=3&lt;br&gt;res.push_back([1,2,3)" style="rounded=1;whiteSpace=wrap;html=1;" vertex="1" parent="1">
          <mxGeometry x="310" y="740" width="120" height="60" as="geometry" />
        </mxCell>
        <mxCell id="ht6JCs_ya0XUu8KMPaR9-32" value="" style="endArrow=classic;html=1;rounded=0;exitX=0.75;exitY=0;exitDx=0;exitDy=0;entryX=0.5;entryY=1;entryDx=0;entryDy=0;" edge="1" parent="1" source="ht6JCs_ya0XUu8KMPaR9-11" target="ht6JCs_ya0XUu8KMPaR9-2">
          <mxGeometry width="50" height="50" relative="1" as="geometry">
            <mxPoint x="350" y="620" as="sourcePoint" />
            <mxPoint x="400" y="570" as="targetPoint" />
          </mxGeometry>
        </mxCell>
        <mxCell id="ht6JCs_ya0XUu8KMPaR9-36" value="撤销2" style="edgeLabel;html=1;align=center;verticalAlign=middle;resizable=0;points=[];" vertex="1" connectable="0" parent="ht6JCs_ya0XUu8KMPaR9-32">
          <mxGeometry x="-0.0118" y="-3" relative="1" as="geometry">
            <mxPoint as="offset" />
          </mxGeometry>
        </mxCell>
        <mxCell id="ht6JCs_ya0XUu8KMPaR9-37" value="在 for 循环&lt;br&gt;选择3" style="endArrow=classic;html=1;rounded=0;exitX=0.75;exitY=1;exitDx=0;exitDy=0;entryX=0;entryY=0;entryDx=0;entryDy=0;" edge="1" parent="1" source="ht6JCs_ya0XUu8KMPaR9-2" target="ht6JCs_ya0XUu8KMPaR9-12">
          <mxGeometry width="50" height="50" relative="1" as="geometry">
            <mxPoint x="350" y="610" as="sourcePoint" />
            <mxPoint x="400" y="560" as="targetPoint" />
          </mxGeometry>
        </mxCell>
        <mxCell id="ht6JCs_ya0XUu8KMPaR9-38" value="used[0]=1&lt;br&gt;continue" style="rounded=0;whiteSpace=wrap;html=1;" vertex="1" parent="1">
          <mxGeometry x="450" y="640" width="120" height="60" as="geometry" />
        </mxCell>
        <mxCell id="ht6JCs_ya0XUu8KMPaR9-39" value="&lt;span style=&quot;color: rgb(0 , 0 , 0) ; font-family: &amp;#34;helvetica&amp;#34; ; font-size: 12px ; font-style: normal ; font-weight: 400 ; letter-spacing: normal ; text-align: center ; text-indent: 0px ; text-transform: none ; word-spacing: 0px ; background-color: rgb(248 , 249 , 250) ; display: inline ; float: none&quot;&gt;i=1&lt;/span&gt;&lt;br style=&quot;color: rgb(0 , 0 , 0) ; font-family: &amp;#34;helvetica&amp;#34; ; font-size: 12px ; font-style: normal ; font-weight: 400 ; letter-spacing: normal ; text-align: center ; text-indent: 0px ; text-transform: none ; word-spacing: 0px ; background-color: rgb(248 , 249 , 250)&quot;&gt;&lt;span style=&quot;color: rgb(0 , 0 , 0) ; font-family: &amp;#34;helvetica&amp;#34; ; font-size: 12px ; font-style: normal ; font-weight: 400 ; letter-spacing: normal ; text-align: center ; text-indent: 0px ; text-transform: none ; word-spacing: 0px ; background-color: rgb(248 , 249 , 250) ; display: inline ; float: none&quot;&gt;b(nums,[1,3,2],[1,1,1)&lt;/span&gt;" style="rounded=0;whiteSpace=wrap;html=1;" vertex="1" parent="1">
          <mxGeometry x="590" y="640" width="120" height="60" as="geometry" />
        </mxCell>
        <mxCell id="ht6JCs_ya0XUu8KMPaR9-40" value="提前 return 被剪枝" style="rounded=0;whiteSpace=wrap;html=1;" vertex="1" parent="1">
          <mxGeometry x="730" y="640" width="120" height="60" as="geometry" />
        </mxCell>
        <mxCell id="ht6JCs_ya0XUu8KMPaR9-42" value="" style="shape=flexArrow;endArrow=classic;html=1;rounded=0;exitX=0.5;exitY=1;exitDx=0;exitDy=0;" edge="1" parent="1" target="ht6JCs_ya0XUu8KMPaR9-44">
          <mxGeometry width="50" height="50" relative="1" as="geometry">
            <mxPoint x="652" y="700" as="sourcePoint" />
            <mxPoint x="727" y="690" as="targetPoint" />
          </mxGeometry>
        </mxCell>
        <mxCell id="ht6JCs_ya0XUu8KMPaR9-43" value="输出" style="edgeLabel;html=1;align=center;verticalAlign=middle;resizable=0;points=[];" vertex="1" connectable="0" parent="ht6JCs_ya0XUu8KMPaR9-42">
          <mxGeometry x="-0.4" y="1" relative="1" as="geometry">
            <mxPoint as="offset" />
          </mxGeometry>
        </mxCell>
        <mxCell id="ht6JCs_ya0XUu8KMPaR9-44" value="path.size()=3&lt;br&gt;res.push_back([1,3,2)" style="rounded=1;whiteSpace=wrap;html=1;" vertex="1" parent="1">
          <mxGeometry x="592" y="740" width="120" height="60" as="geometry" />
        </mxCell>
        <mxCell id="ht6JCs_ya0XUu8KMPaR9-46" value="" style="endArrow=classic;html=1;rounded=0;exitX=0.25;exitY=1;exitDx=0;exitDy=0;entryX=0.25;entryY=0;entryDx=0;entryDy=0;" edge="1" parent="1" source="ht6JCs_ya0XUu8KMPaR9-12" target="ht6JCs_ya0XUu8KMPaR9-39">
          <mxGeometry width="50" height="50" relative="1" as="geometry">
            <mxPoint x="510" y="840" as="sourcePoint" />
            <mxPoint x="560" y="790" as="targetPoint" />
          </mxGeometry>
        </mxCell>
        <mxCell id="ht6JCs_ya0XUu8KMPaR9-47" value="" style="endArrow=classic;html=1;rounded=0;exitX=0.75;exitY=0;exitDx=0;exitDy=0;entryX=0.75;entryY=1;entryDx=0;entryDy=0;" edge="1" parent="1" source="ht6JCs_ya0XUu8KMPaR9-39" target="ht6JCs_ya0XUu8KMPaR9-12">
          <mxGeometry width="50" height="50" relative="1" as="geometry">
            <mxPoint x="510" y="780" as="sourcePoint" />
            <mxPoint x="560" y="730" as="targetPoint" />
          </mxGeometry>
        </mxCell>
        <mxCell id="ht6JCs_ya0XUu8KMPaR9-48" value="return&lt;br&gt;撤销2" style="edgeLabel;html=1;align=center;verticalAlign=middle;resizable=0;points=[];" vertex="1" connectable="0" parent="ht6JCs_ya0XUu8KMPaR9-47">
          <mxGeometry x="0.134" y="-3" relative="1" as="geometry">
            <mxPoint as="offset" />
          </mxGeometry>
        </mxCell>
        <mxCell id="ht6JCs_ya0XUu8KMPaR9-49" value="" style="endArrow=classic;html=1;rounded=0;exitX=0.5;exitY=0;exitDx=0;exitDy=0;entryX=1;entryY=0.75;entryDx=0;entryDy=0;" edge="1" parent="1" source="ht6JCs_ya0XUu8KMPaR9-12" target="ht6JCs_ya0XUu8KMPaR9-2">
          <mxGeometry width="50" height="50" relative="1" as="geometry">
            <mxPoint x="510" y="620" as="sourcePoint" />
            <mxPoint x="560" y="570" as="targetPoint" />
          </mxGeometry>
        </mxCell>
        <mxCell id="ht6JCs_ya0XUu8KMPaR9-50" value="撤销2" style="edgeLabel;html=1;align=center;verticalAlign=middle;resizable=0;points=[];" vertex="1" connectable="0" parent="ht6JCs_ya0XUu8KMPaR9-49">
          <mxGeometry x="-0.1849" y="-1" relative="1" as="geometry">
            <mxPoint x="-1" as="offset" />
          </mxGeometry>
        </mxCell>
        <mxCell id="ht6JCs_ya0XUu8KMPaR9-51" value="撤销1" style="endArrow=classic;html=1;rounded=0;exitX=0.75;exitY=0;exitDx=0;exitDy=0;entryX=0.567;entryY=1.05;entryDx=0;entryDy=0;entryPerimeter=0;" edge="1" parent="1" source="ht6JCs_ya0XUu8KMPaR9-2" target="ht6JCs_ya0XUu8KMPaR9-1">
          <mxGeometry width="50" height="50" relative="1" as="geometry">
            <mxPoint x="510" y="620" as="sourcePoint" />
            <mxPoint x="560" y="570" as="targetPoint" />
          </mxGeometry>
        </mxCell>
        <mxCell id="ht6JCs_ya0XUu8KMPaR9-53" value="选择2" style="endArrow=classic;html=1;rounded=0;exitX=0.75;exitY=1;exitDx=0;exitDy=0;entryX=0.5;entryY=0;entryDx=0;entryDy=0;" edge="1" parent="1" source="ht6JCs_ya0XUu8KMPaR9-1" target="ht6JCs_ya0XUu8KMPaR9-4">
          <mxGeometry width="50" height="50" relative="1" as="geometry">
            <mxPoint x="450" y="400" as="sourcePoint" />
            <mxPoint x="560" y="480" as="targetPoint" />
          </mxGeometry>
        </mxCell>
        <mxCell id="ht6JCs_ya0XUu8KMPaR9-55" style="edgeStyle=orthogonalEdgeStyle;rounded=0;orthogonalLoop=1;jettySize=auto;html=1;entryX=0.5;entryY=0;entryDx=0;entryDy=0;" edge="1" parent="1" source="ht6JCs_ya0XUu8KMPaR9-54" target="ht6JCs_ya0XUu8KMPaR9-1">
          <mxGeometry relative="1" as="geometry" />
        </mxCell>
        <mxCell id="ht6JCs_ya0XUu8KMPaR9-54" value="开始" style="ellipse;whiteSpace=wrap;html=1;" vertex="1" parent="1">
          <mxGeometry x="367" y="204" width="86" height="50" as="geometry" />
        </mxCell>
      </root>
    </mxGraphModel>
  </diagram>
</mxfile>
